<svg width="24" height="22" viewBox="0 0 24 22" fill="none" xmlns="http://www.w3.org/2000/svg">
<path d="M16.6663 11H18.9997V15.6667H16.6663V11Z" fill="#757575"/>
<path d="M21.333 5.16667V2.83333C21.333 1.5465 20.2865 0.5 18.9997 0.5H3.83301C1.90334 0.5 0.333008 2.07033 0.333008 4V18C0.333008 20.5678 2.42601 21.5 3.83301 21.5H21.333C22.6198 21.5 23.6663 20.4535 23.6663 19.1667V7.5C23.6663 6.21317 22.6198 5.16667 21.333 5.16667ZM3.83301 2.83333H18.9997V5.16667H3.83301C3.53261 5.15323 3.24898 5.02444 3.04116 4.80712C2.83335 4.5898 2.71736 4.30069 2.71736 4C2.71736 3.69931 2.83335 3.4102 3.04116 3.19288C3.24898 2.97556 3.53261 2.84677 3.83301 2.83333ZM21.333 19.1667H3.84701C3.30801 19.1527 2.66634 18.9392 2.66634 18V7.28417C3.03267 7.416 3.42117 7.5 3.83301 7.5H21.333V19.1667Z" fill="#757575"/>
</svg>