<svg width="16" height="16" viewBox="0 0 16 16" fill="none" xmlns="http://www.w3.org/2000/svg">
<g clip-path="url(#clip0_2959_3334)">
<path d="M4.08498 2.01929C4.08808 2.41447 3.93551 2.795 3.66027 3.07858C3.38502 3.36217 3.00922 3.52602 2.61412 3.53472C2.21985 3.52039 1.84615 3.35513 1.57028 3.07309C1.2944 2.79104 1.13744 2.41378 1.13184 2.01929C1.14887 1.63484 1.31154 1.27127 1.58682 1.00235C1.8621 0.73344 2.22938 0.579328 2.61412 0.571289C2.99773 0.579482 3.36371 0.73398 3.63714 1.00316C3.91057 1.27234 4.07078 1.63585 4.08498 2.01929ZM1.29069 6.22729C1.29069 5.35643 1.84498 5.49243 2.61412 5.49243C3.38326 5.49243 3.92612 5.35643 3.92612 6.22729V14.7119C3.92612 15.5941 3.37184 15.4136 2.61412 15.4136C1.85641 15.4136 1.29069 15.5941 1.29069 14.7119V6.22729ZM6.21184 6.22843C6.21184 5.74157 6.39241 5.55986 6.67469 5.50386C6.95698 5.44786 7.93069 5.50386 8.27012 5.50386C8.60955 5.50386 8.74555 6.05815 8.73412 6.47643C9.02479 6.08729 9.41022 5.77901 9.85373 5.58097C10.2972 5.38292 10.7841 5.30169 11.2678 5.345C11.743 5.31599 12.2189 5.38725 12.6647 5.55414C13.1105 5.72103 13.5162 5.97983 13.8555 6.31372C14.1948 6.64762 14.4601 7.04914 14.6341 7.49222C14.8081 7.9353 14.887 8.41003 14.8656 8.88558V14.6776C14.8656 15.5599 14.3227 15.3793 13.5524 15.3793C12.7833 15.3793 12.2404 15.5599 12.2404 14.6776V10.153C12.2603 9.92017 12.2299 9.68578 12.1512 9.46575C12.0725 9.24571 11.9474 9.04519 11.7844 8.8778C11.6213 8.7104 11.4241 8.58006 11.2062 8.49562C10.9883 8.41118 10.7548 8.37463 10.5216 8.38843C10.2892 8.38231 10.0582 8.42566 9.84381 8.51559C9.62947 8.60553 9.43669 8.74001 9.27826 8.91011C9.11983 9.08021 8.99937 9.28205 8.92487 9.50224C8.85037 9.72243 8.82353 9.95594 8.84612 10.1873V14.7119C8.84612 15.5941 8.29184 15.4136 7.52269 15.4136C6.75355 15.4136 6.21069 15.5941 6.21069 14.7119V6.22729L6.21184 6.22843Z" stroke="#ABABAB" stroke-width="1.14286" stroke-linecap="round" stroke-linejoin="round"/>
</g>
<defs>
<clipPath id="clip0_2959_3334">
<rect width="16" height="16" fill="white"/>
</clipPath>
</defs>
</svg>
