<svg width="18" height="18" viewBox="0 0 18 18" fill="none" xmlns="http://www.w3.org/2000/svg">
<path d="M15.2503 2.33332H12.7503V1.08332C12.7503 0.972816 12.7064 0.866836 12.6283 0.788695C12.5501 0.710555 12.4442 0.666656 12.3337 0.666656C12.2232 0.666656 12.1172 0.710555 12.039 0.788695C11.9609 0.866836 11.917 0.972816 11.917 1.08332V2.33332H6.08366V1.08332C6.08366 0.972816 6.03976 0.866836 5.96162 0.788695C5.88348 0.710555 5.7775 0.666656 5.66699 0.666656C5.55649 0.666656 5.4505 0.710555 5.37236 0.788695C5.29422 0.866836 5.25033 0.972816 5.25033 1.08332V2.33332H2.75033C2.19799 2.33398 1.66847 2.55369 1.27792 2.94425C0.88736 3.33481 0.667654 3.86433 0.666992 4.41666V15.25C0.667654 15.8023 0.88736 16.3318 1.27792 16.7224C1.66847 17.113 2.19799 17.3327 2.75033 17.3333H15.2503C15.8029 17.3333 16.3328 17.1138 16.7235 16.7231C17.1142 16.3324 17.3337 15.8025 17.3337 15.25V4.41666C17.3337 3.86412 17.1142 3.33422 16.7235 2.94352C16.3328 2.55282 15.8029 2.33332 15.2503 2.33332ZM16.5003 15.25C16.5003 15.5815 16.3686 15.8995 16.1342 16.1339C15.8998 16.3683 15.5818 16.5 15.2503 16.5H2.75033C2.4188 16.5 2.10086 16.3683 1.86644 16.1339C1.63202 15.8995 1.50033 15.5815 1.50033 15.25V8.16666H16.5003V15.25ZM16.5003 7.33332H1.50033V4.41666C1.50033 3.72666 2.05866 3.16666 2.75033 3.16666H5.25033V4.41666C5.25033 4.52716 5.29422 4.63314 5.37236 4.71128C5.4505 4.78942 5.55649 4.83332 5.66699 4.83332C5.7775 4.83332 5.88348 4.78942 5.96162 4.71128C6.03976 4.63314 6.08366 4.52716 6.08366 4.41666V3.16666H11.917V4.41666C11.917 4.52716 11.9609 4.63314 12.039 4.71128C12.1172 4.78942 12.2232 4.83332 12.3337 4.83332C12.4442 4.83332 12.5501 4.78942 12.6283 4.71128C12.7064 4.63314 12.7503 4.52716 12.7503 4.41666V3.16666H15.2503C15.5818 3.16666 15.8998 3.29835 16.1342 3.53277C16.3686 3.76719 16.5003 4.08514 16.5003 4.41666V7.33332Z" fill="black"/>
</svg>
