<svg width="32" height="32" viewBox="0 0 32 32" fill="none" xmlns="http://www.w3.org/2000/svg">
<path d="M2.66669 25.3332C2.66669 27.5998 4.40002 29.3332 6.66669 29.3332H25.3334C27.6 29.3332 29.3334 27.5998 29.3334 25.3332V14.6665H2.66669V25.3332ZM25.3334 5.33317H22.6667V3.99984C22.6667 3.19984 22.1334 2.6665 21.3334 2.6665C20.5334 2.6665 20 3.19984 20 3.99984V5.33317H12V3.99984C12 3.19984 11.4667 2.6665 10.6667 2.6665C9.86669 2.6665 9.33336 3.19984 9.33336 3.99984V5.33317H6.66669C4.40002 5.33317 2.66669 7.0665 2.66669 9.33317V11.9998H29.3334V9.33317C29.3334 7.0665 27.6 5.33317 25.3334 5.33317Z" fill="#2D6CCF"/>
</svg>
