<svg width="20" height="20" viewBox="0 0 20 20" fill="none" xmlns="http://www.w3.org/2000/svg">
<path d="M11.6667 11.6667L9.16668 9.16671M17.4742 16.9067C17.5015 16.9858 17.506 17.0709 17.4871 17.1525C17.4683 17.234 17.4269 17.3085 17.3678 17.3676C17.3086 17.4267 17.2339 17.468 17.1524 17.4867C17.0709 17.5054 16.9857 17.5008 16.9067 17.4734L2.79834 12.5367C2.71401 12.5072 2.6405 12.453 2.58734 12.3811C2.53419 12.3093 2.50385 12.2232 2.50025 12.1339C2.49666 12.0446 2.51998 11.9563 2.56719 11.8804C2.6144 11.8045 2.68332 11.7446 2.76501 11.7084L8.80001 9.02588C8.90037 8.98075 8.98071 8.90041 9.02584 8.80005L11.7092 2.76505C11.7455 2.68363 11.8055 2.61498 11.8812 2.56797C11.957 2.52096 12.0451 2.49775 12.1342 2.50134C12.2233 2.50493 12.3093 2.53515 12.381 2.5881C12.4528 2.64105 12.507 2.7143 12.5367 2.79838L17.4742 16.9067Z" stroke="white" stroke-width="1.5" stroke-linecap="round" stroke-linejoin="round"/>
</svg>
