<svg width="26" height="26" viewBox="0 0 26 26" fill="none" xmlns="http://www.w3.org/2000/svg">
<path d="M11.834 3.66665H3.66732C3.04848 3.66665 2.45499 3.91248 2.0174 4.35006C1.57982 4.78765 1.33398 5.38114 1.33398 5.99998V22.3333C1.33398 22.9522 1.57982 23.5456 2.0174 23.9832C2.45499 24.4208 3.04848 24.6666 3.66732 24.6666H20.0007C20.6195 24.6666 21.213 24.4208 21.6506 23.9832C22.0882 23.5456 22.334 22.9522 22.334 22.3333V14.1666M20.584 1.91665C21.0481 1.45252 21.6776 1.19177 22.334 1.19177C22.9904 1.19177 23.6199 1.45252 24.084 1.91665C24.5481 2.38078 24.8089 3.01027 24.8089 3.66665C24.8089 4.32302 24.5481 4.95252 24.084 5.41665L13.0007 16.5L8.33398 17.6666L9.50065 13L20.584 1.91665Z" stroke="#2D6CCF" stroke-width="2" stroke-linecap="round" stroke-linejoin="round"/>
</svg>
