<svg width="8" height="10" viewBox="0 0 8 10" fill="none" xmlns="http://www.w3.org/2000/svg">
<path d="M4.00003 6C5.10303 6 6.00003 5.103 6.00003 4C6.00003 2.897 5.10303 2 4.00003 2C2.89703 2 2.00003 2.897 2.00003 4C2.00003 5.103 2.89703 6 4.00003 6ZM4.00003 3C4.55153 3 5.00003 3.4485 5.00003 4C5.00003 4.5515 4.55153 5 4.00003 5C3.44853 5 3.00003 4.5515 3.00003 4C3.00003 3.4485 3.44853 3 4.00003 3Z" fill="#ABABAB"/>
<path d="M3.71004 9.907C3.79467 9.96743 3.89606 9.99992 4.00004 9.99992C4.10403 9.99992 4.20542 9.96743 4.29004 9.907C4.44204 9.7995 8.01454 7.22 8.00004 4C8.00004 1.7945 6.20554 0 4.00004 0C1.79454 0 4.40189e-05 1.7945 4.40189e-05 3.9975C-0.014456 7.22 3.55804 9.7995 3.71004 9.907ZM4.00004 1C5.65454 1 7.00004 2.3455 7.00004 4.0025C7.01054 6.2215 4.80604 8.214 4.00004 8.8675C3.19454 8.2135 0.989544 6.2205 1.00004 4C1.00004 2.3455 2.34554 1 4.00004 1Z" fill="#ABABAB"/>
</svg>
