<svg width="64" height="64" viewBox="0 0 64 64" fill="none" xmlns="http://www.w3.org/2000/svg">
<rect width="64" height="64" rx="32" fill="#2D6CCF"/>
<path d="M38.666 20.0001C39.0162 19.6499 39.4319 19.3721 39.8895 19.1826C40.347 18.9931 40.8374 18.8955 41.3327 18.8955C41.8279 18.8955 42.3183 18.9931 42.7759 19.1826C43.2334 19.3721 43.6492 19.6499 43.9993 20.0001C44.3495 20.3503 44.6273 20.766 44.8169 21.2236C45.0064 21.6811 45.1039 22.1715 45.1039 22.6667C45.1039 23.162 45.0064 23.6524 44.8169 24.1099C44.6273 24.5675 44.3495 24.9832 43.9993 25.3334L25.9993 43.3334L18.666 45.3334L20.666 38.0001L38.666 20.0001Z" stroke="white" stroke-width="3" stroke-linecap="round" stroke-linejoin="round"/>
</svg>
