<svg width="28" height="28" viewBox="0 0 28 28" fill="none" xmlns="http://www.w3.org/2000/svg">
<path d="M16.334 3.81387C16.334 2.99604 15.6713 2.33337 14.8535 2.33337H13.149C12.33 2.33337 11.6673 2.99604 11.6673 3.81387C11.6673 4.48821 11.2053 5.06687 10.5765 5.31421C10.4769 5.35465 10.3785 5.39587 10.2813 5.43787C9.66182 5.70621 8.92565 5.62454 8.44732 5.14737C8.16955 4.87024 7.79319 4.7146 7.40082 4.7146C7.00844 4.7146 6.63209 4.87024 6.35432 5.14737L5.14798 6.35371C4.87085 6.63148 4.71521 7.00783 4.71521 7.40021C4.71521 7.79258 4.87085 8.16894 5.14798 8.44671C5.62632 8.92504 5.70798 9.66004 5.43732 10.2807C5.3948 10.3784 5.35396 10.4768 5.31482 10.5759C5.06748 11.2047 4.48882 11.6667 3.81448 11.6667C2.99665 11.6667 2.33398 12.3294 2.33398 13.1472V14.8529C2.33398 15.6707 2.99665 16.3334 3.81448 16.3334C4.48882 16.3334 5.06748 16.7954 5.31482 17.4242C5.35526 17.5238 5.3961 17.6222 5.43732 17.7194C5.70682 18.3389 5.62515 19.075 5.14798 19.5534C4.87085 19.8311 4.71521 20.2075 4.71521 20.5999C4.71521 20.9922 4.87085 21.3686 5.14798 21.6464L6.35432 22.8527C6.63209 23.1298 7.00844 23.2855 7.40082 23.2855C7.79319 23.2855 8.16955 23.1298 8.44732 22.8527C8.92565 22.3744 9.66065 22.2927 10.2813 22.5622C10.3785 22.605 10.4769 22.6462 10.5765 22.6859C11.2053 22.9332 11.6673 23.5119 11.6673 24.1862C11.6673 25.004 12.33 25.6667 13.1478 25.6667H14.8535C15.6713 25.6667 16.334 25.004 16.334 24.1862C16.334 23.5119 16.796 22.9332 17.4248 22.6847C17.5244 22.6458 17.6228 22.6054 17.72 22.5634C18.3395 22.2927 19.0757 22.3755 19.5528 22.8527C19.8306 23.1302 20.2072 23.2861 20.5999 23.2861C20.9926 23.2861 21.3692 23.1302 21.647 22.8527L22.8533 21.6464C23.1305 21.3686 23.2861 20.9922 23.2861 20.5999C23.2861 20.2075 23.1305 19.8311 22.8533 19.5534C22.375 19.075 22.2933 18.34 22.5628 17.7194C22.6056 17.6222 22.6468 17.5238 22.6865 17.4242C22.9338 16.7954 23.5125 16.3334 24.1868 16.3334C25.0047 16.3334 25.6673 15.6707 25.6673 14.8529V13.1484C25.6673 12.3305 25.0047 11.6679 24.1868 11.6679C23.5125 11.6679 22.9338 11.2059 22.6853 10.577C22.6462 10.478 22.6053 10.3796 22.5628 10.2819C22.2945 9.66237 22.3761 8.92621 22.8533 8.44787C23.1305 8.17011 23.2861 7.79375 23.2861 7.40137C23.2861 7.009 23.1305 6.63264 22.8533 6.35487L21.647 5.14854C21.3692 4.87141 20.9929 4.71577 20.6005 4.71577C20.2081 4.71577 19.8318 4.87141 19.554 5.14854C19.0757 5.62687 18.3407 5.70854 17.72 5.43904C17.6223 5.39613 17.5239 5.35491 17.4248 5.31537C16.796 5.06687 16.334 4.48704 16.334 3.81387Z" stroke="#2D6CCF" stroke-width="2"/>
<path d="M18.6673 14C18.6673 15.2377 18.1757 16.4247 17.3005 17.2999C16.4253 18.175 15.2383 18.6667 14.0007 18.6667C12.763 18.6667 11.576 18.175 10.7008 17.2999C9.82565 16.4247 9.33398 15.2377 9.33398 14C9.33398 12.7624 9.82565 11.5754 10.7008 10.7002C11.576 9.82504 12.763 9.33337 14.0007 9.33337C15.2383 9.33337 16.4253 9.82504 17.3005 10.7002C18.1757 11.5754 18.6673 12.7624 18.6673 14Z" stroke="#2D6CCF" stroke-width="2"/>
</svg>
