<svg width="32" height="26" viewBox="0 0 32 26" fill="none" xmlns="http://www.w3.org/2000/svg">
<g clip-path="url(#clip0_4920_2128)">
<path d="M7.2 0.200195C8.26087 0.200195 9.27828 0.621623 10.0284 1.37177C10.7786 2.12191 11.2 3.13933 11.2 4.2002C11.2 5.26106 10.7786 6.27848 10.0284 7.02862C9.27828 7.77877 8.26087 8.2002 7.2 8.2002C6.13913 8.2002 5.12172 7.77877 4.37157 7.02862C3.62143 6.27848 3.2 5.26106 3.2 4.2002C3.2 3.13933 3.62143 2.12191 4.37157 1.37177C5.12172 0.621623 6.13913 0.200195 7.2 0.200195ZM25.6 0.200195C26.6609 0.200195 27.6783 0.621623 28.4284 1.37177C29.1786 2.12191 29.6 3.13933 29.6 4.2002C29.6 5.26106 29.1786 6.27848 28.4284 7.02862C27.6783 7.77877 26.6609 8.2002 25.6 8.2002C24.5391 8.2002 23.5217 7.77877 22.7716 7.02862C22.0214 6.27848 21.6 5.26106 21.6 4.2002C21.6 3.13933 22.0214 2.12191 22.7716 1.37177C23.5217 0.621623 24.5391 0.200195 25.6 0.200195ZM0 15.1352C0 12.1902 2.39 9.8002 5.335 9.8002H7.47C8.265 9.8002 9.02 9.97519 9.7 10.2852C9.635 10.6452 9.605 11.0202 9.605 11.4002C9.605 13.3102 10.445 15.0252 11.77 16.2002H1.065C0.48 16.2002 0 15.7202 0 15.1352ZM20.265 16.2002H20.23C21.56 15.0252 22.395 13.3102 22.395 11.4002C22.395 11.0202 22.36 10.6502 22.3 10.2852C22.98 9.9702 23.735 9.8002 24.53 9.8002H26.665C29.61 9.8002 32 12.1902 32 15.1352C32 15.7252 31.52 16.2002 30.935 16.2002H20.27H20.265ZM11.2 11.4002C11.2 10.1272 11.7057 8.90626 12.6059 8.00608C13.5061 7.10591 14.727 6.6002 16 6.6002C17.273 6.6002 18.4939 7.10591 19.3941 8.00608C20.2943 8.90626 20.8 10.1272 20.8 11.4002C20.8 12.6732 20.2943 13.8941 19.3941 14.7943C18.4939 15.6945 17.273 16.2002 16 16.2002C14.727 16.2002 13.5061 15.6945 12.6059 14.7943C11.7057 13.8941 11.2 12.6732 11.2 11.4002ZM6.4 24.4652C6.4 20.7852 9.385 17.8002 13.065 17.8002H18.93C22.615 17.8002 25.6 20.7852 25.6 24.4652C25.6 25.2002 25.005 25.8002 24.265 25.8002H7.73C6.995 25.8002 6.395 25.2052 6.395 24.4652H6.4Z" fill="#FF7F50"/>
</g>
<defs>
<clipPath id="clip0_4920_2128">
<rect width="32" height="25.6" fill="white" transform="translate(0 0.200195)"/>
</clipPath>
</defs>
</svg>
