<svg width="72" height="72" viewBox="0 0 72 72" fill="none" xmlns="http://www.w3.org/2000/svg">
<rect x="0.5" y="0.5" width="71" height="71" rx="11.5" stroke="#757575"/>
<path d="M66 36C66 47.313 66 52.971 62.484 56.484C58.968 59.997 53.313 60 42 60H30C18.687 60 13.029 60 9.516 56.484C6.003 52.968 6 47.313 6 36C6 24.687 6 19.029 9.516 15.516C13.032 12.003 18.687 12 30 12H42C53.313 12 58.971 12 62.484 15.516C64.446 17.475 65.313 20.1 65.694 24" stroke="#757575" stroke-width="4.5" stroke-linecap="round"/>
<path d="M27 36C27 36.7956 26.6839 37.5587 26.1213 38.1213C25.5587 38.6839 24.7956 39 24 39C23.2044 39 22.4413 38.6839 21.8787 38.1213C21.3161 37.5587 21 36.7956 21 36C21 35.2044 21.3161 34.4413 21.8787 33.8787C22.4413 33.3161 23.2044 33 24 33C24.7956 33 25.5587 33.3161 26.1213 33.8787C26.6839 34.4413 27 35.2044 27 36ZM39 36C39 36.7956 38.6839 37.5587 38.1213 38.1213C37.5587 38.6839 36.7956 39 36 39C35.2044 39 34.4413 38.6839 33.8787 38.1213C33.3161 37.5587 33 36.7956 33 36C33 35.2044 33.3161 34.4413 33.8787 33.8787C34.4413 33.3161 35.2044 33 36 33C36.7956 33 37.5587 33.3161 38.1213 33.8787C38.6839 34.4413 39 35.2044 39 36ZM51 36C51 36.7956 50.6839 37.5587 50.1213 38.1213C49.5587 38.6839 48.7956 39 48 39C47.2044 39 46.4413 38.6839 45.8787 38.1213C45.3161 37.5587 45 36.7956 45 36C45 35.2044 45.3161 34.4413 45.8787 33.8787C46.4413 33.3161 47.2044 33 48 33C48.7956 33 49.5587 33.3161 50.1213 33.8787C50.6839 34.4413 51 35.2044 51 36Z" fill="#757575"/>
</svg>
