<svg width="72" height="72" viewBox="0 0 72 72" fill="none" xmlns="http://www.w3.org/2000/svg">
<rect x="0.5" y="0.5" width="71" height="71" rx="11.5" stroke="#757575"/>
<path d="M26.0002 32.667V29.3336C26.0002 28.7659 26.0463 28.2103 26.1385 27.667M46.0002 32.667V29.3336C46.0003 27.3024 45.3818 25.3192 44.2271 23.6481C43.0723 21.977 41.436 20.6972 39.536 19.979C37.6359 19.2608 35.5622 19.1382 33.5908 19.6276C31.6194 20.117 29.8437 21.1952 28.5002 22.7186M34.3335 52.667H29.3335C24.6202 52.667 22.2618 52.667 20.7985 51.202C19.3335 49.7386 19.3335 47.3803 19.3335 42.667C19.3335 37.9536 19.3335 35.5953 20.7985 34.132C22.2618 32.667 24.6202 32.667 29.3335 32.667H42.6668C47.3802 32.667 49.7385 32.667 51.2018 34.132C52.6668 35.5953 52.6668 37.9536 52.6668 42.667C52.6668 47.3803 52.6668 49.7386 51.2018 51.202C49.7385 52.667 47.3802 52.667 42.6668 52.667H41.0002" stroke="#757575" stroke-width="1.5" stroke-linecap="round"/>
</svg>
