<svg width="16" height="16" viewBox="0 0 16 16" fill="none" xmlns="http://www.w3.org/2000/svg">
<g clip-path="url(#clip0_4162_7312)">
<path d="M4.08461 2.01953C4.08771 2.41472 3.93514 2.79524 3.6599 3.07883C3.38466 3.36241 3.00886 3.52627 2.61376 3.53496C2.21948 3.52064 1.84578 3.35537 1.56991 3.07333C1.29403 2.79129 1.13707 2.41403 1.13147 2.01953C1.14851 1.63508 1.31117 1.27151 1.58645 1.0026C1.86173 0.733684 2.22901 0.579572 2.61376 0.571533C2.99737 0.579726 3.36334 0.734224 3.63677 1.00341C3.9102 1.27259 4.07041 1.6361 4.08461 2.01953ZM1.29033 6.22753C1.29033 5.35668 1.84461 5.49268 2.61376 5.49268C3.3829 5.49268 3.92576 5.35668 3.92576 6.22753V14.7121C3.92576 15.5944 3.37147 15.4138 2.61376 15.4138C1.85604 15.4138 1.29033 15.5944 1.29033 14.7121V6.22753ZM6.21147 6.22868C6.21147 5.74182 6.39204 5.5601 6.67433 5.5041C6.95661 5.4481 7.93033 5.5041 8.26976 5.5041C8.60918 5.5041 8.74518 6.05839 8.73376 6.47668C9.02442 6.08753 9.40986 5.77926 9.85336 5.58121C10.2969 5.38316 10.7837 5.30193 11.2675 5.34525C11.7426 5.31624 12.2185 5.38749 12.6643 5.55438C13.1102 5.72127 13.5159 5.98007 13.8552 6.31397C14.1944 6.64786 14.4597 7.04939 14.6337 7.49247C14.8077 7.93555 14.8866 8.41028 14.8652 8.88582V14.6778C14.8652 15.5601 14.3223 15.3795 13.552 15.3795C12.7829 15.3795 12.24 15.5601 12.24 14.6778V10.1532C12.26 9.92042 12.2295 9.68602 12.1509 9.46599C12.0722 9.24596 11.947 9.04543 11.784 8.87804C11.6209 8.71065 11.4238 8.58031 11.2059 8.49587C10.988 8.41143 10.7545 8.37487 10.5212 8.38868C10.2888 8.38255 10.0578 8.4259 9.84345 8.51584C9.6291 8.60578 9.43632 8.74026 9.27789 8.91036C9.11946 9.08046 8.999 9.28229 8.9245 9.50248C8.85 9.72267 8.82316 9.95618 8.84576 10.1875V14.7121C8.84576 15.5944 8.29147 15.4138 7.52233 15.4138C6.75318 15.4138 6.21033 15.5944 6.21033 14.7121V6.22753L6.21147 6.22868Z" stroke="#ABABAB" stroke-width="1.14286" stroke-linecap="round" stroke-linejoin="round"/>
</g>
<defs>
<clipPath id="clip0_4162_7312">
<rect width="16" height="16" fill="white"/>
</clipPath>
</defs>
</svg>
