<svg width="16" height="16" viewBox="0 0 16 16" fill="none" xmlns="http://www.w3.org/2000/svg">
<path fill-rule="evenodd" clip-rule="evenodd" d="M10.6667 2.16187H5.33333C3.49239 2.16187 2 3.65425 2 5.4952V10.8285C2 12.6695 3.49239 14.1619 5.33333 14.1619H10.6667C12.5076 14.1619 14 12.6695 14 10.8285V5.4952C14 3.65425 12.5076 2.16187 10.6667 2.16187ZM12.8333 10.8285C12.8297 12.0236 11.8617 12.9915 10.6667 12.9952H5.33333C4.13823 12.9915 3.17033 12.0236 3.16667 10.8285V5.4952C3.17033 4.3001 4.13823 3.33219 5.33333 3.32853H10.6667C11.8617 3.33219 12.8297 4.3001 12.8333 5.4952V10.8285ZM11.1667 5.66187C11.5349 5.66187 11.8333 5.36339 11.8333 4.9952C11.8333 4.62701 11.5349 4.32853 11.1667 4.32853C10.7985 4.32853 10.5 4.62701 10.5 4.9952C10.5 5.36339 10.7985 5.66187 11.1667 5.66187ZM8 5.16187C6.34315 5.16187 5 6.50501 5 8.16187C5 9.81873 6.34315 11.1619 8 11.1619C9.65687 11.1619 11 9.81873 11 8.16187C11.0018 7.36567 10.6863 6.60158 10.1233 6.03859C9.56027 5.47559 8.7962 5.16009 8 5.16187ZM6.16667 8.16187C6.16667 9.1744 6.98747 9.9952 8 9.9952C9.01253 9.9952 9.83333 9.1744 9.83333 8.16187C9.83333 7.14933 9.01253 6.32853 8 6.32853C6.98747 6.32853 6.16667 7.14933 6.16667 8.16187Z" fill="#ABABAB"/>
</svg>
