<svg width="18" height="18" viewBox="0 0 18 18" fill="none" xmlns="http://www.w3.org/2000/svg">
<path d="M8.99984 15.6667C10.7679 15.6667 12.4636 14.9643 13.7139 13.714C14.9641 12.4638 15.6665 10.7681 15.6665 9C15.6665 7.23189 14.9641 5.5362 13.7139 4.28595C12.4636 3.03571 10.7679 2.33333 8.99984 2.33333C7.23173 2.33333 5.53604 3.03571 4.28579 4.28595C3.03555 5.5362 2.33317 7.23189 2.33317 9C2.33317 10.7681 3.03555 12.4638 4.28579 13.714C5.53604 14.9643 7.23173 15.6667 8.99984 15.6667ZM8.99984 0.666664C10.0942 0.666664 11.1778 0.882212 12.1889 1.301C13.1999 1.71979 14.1186 2.33362 14.8924 3.10744C15.6662 3.88126 16.28 4.79992 16.6988 5.81097C17.1176 6.82202 17.3332 7.90565 17.3332 9C17.3332 11.2101 16.4552 13.3298 14.8924 14.8926C13.3296 16.4554 11.21 17.3333 8.99984 17.3333C4.3915 17.3333 0.666504 13.5833 0.666504 9C0.666504 6.78986 1.54448 4.67024 3.10728 3.10744C4.67008 1.54464 6.7897 0.666664 8.99984 0.666664ZM9.4165 4.83333V9.20833L13.1665 11.4333L12.5415 12.4583L8.1665 9.83333V4.83333H9.4165Z" fill="#FF9B76"/>
</svg>
