<svg width="72" height="72" viewBox="0 0 72 72" fill="none" xmlns="http://www.w3.org/2000/svg">
<rect x="0.5" y="0.5" width="71" height="71" rx="11.5" stroke="#757575"/>
<path d="M9 15V13.5C8.60218 13.5 8.22064 13.658 7.93934 13.9393C7.65804 14.2206 7.5 14.6022 7.5 15H9ZM63 15H64.5C64.5 14.6022 64.342 14.2206 64.0607 13.9393C63.7794 13.658 63.3978 13.5 63 13.5V15ZM9 16.5H63V13.5H9V16.5ZM61.5 15V51H64.5V15H61.5ZM57 55.5H15V58.5H57V55.5ZM10.5 51V15H7.5V51H10.5ZM15 55.5C13.8065 55.5 12.6619 55.0259 11.818 54.182C10.9741 53.3381 10.5 52.1935 10.5 51H7.5C7.5 52.9891 8.29018 54.8968 9.6967 56.3033C11.1032 57.7098 13.0109 58.5 15 58.5V55.5ZM61.5 51C61.5 52.1935 61.0259 53.3381 60.182 54.182C59.3381 55.0259 58.1935 55.5 57 55.5V58.5C58.9891 58.5 60.8968 57.7098 62.3033 56.3033C63.7098 54.8968 64.5 52.9891 64.5 51H61.5Z" fill="#757575"/>
<path d="M9 15L36 42L63 15" stroke="#757575" stroke-width="3" stroke-linecap="round" stroke-linejoin="round"/>
</svg>
